<svg version="1.2" xmlns="http://www.w3.org/2000/svg" viewBox="0 0 960 960" width="960" height="960"><style></style><path fill-rule="evenodd" d="m453 508q51 51 114 87.5 63 36.5 135 56.5-40 51-98 79.5-58 28.5-123 28.5-117 0-198.5-81.5-81.5-81.5-81.5-198.5 0-65 28.5-123 28.5-58 79.5-98 20 72 56.5 135 36.5 63 87.5 114zm-57 56q-32-32-58.5-67-26.5-35-48.5-74-5 14-6.5 28.5-1.5 14.5-1.5 28.5 0 83 58 141 58 58 141 58 14 0 28.5-2 14.5-2 28.5-6-39-22-74-48.5-35-26.5-67-58.5zm347 16q-20-5-39.5-11-19.5-6-38.5-14 8-18 11.5-36.5 3.5-18.5 3.5-38.5 0-83-58.5-141.5-58.5-58.5-141.5-58.5-20 0-38.5 3.5-18.5 3.5-36.5 11.5-8-19-13.5-38-5.5-19-10.5-39 24-9 49-13.5 25-4.5 51-4.5 117 0 198.5 81.5 81.5 81.5 81.5 198.5 0 26-4.5 51-4.5 25-13.5 49zm-303-460v-120h80v120zm0 840v-120h80v120zm323-706l-57-57 85-84 57 56zm-594 593l-57-56 85-85 57 57zm671-327v-80h120v80zm-840 0v-80h120v80zm791 328l-85-85 57-57 84 85zm-594-594l-84-85 56-57 85 85z"/></svg>