<svg version="1.2"
    xmlns="http://www.w3.org/2000/svg" viewBox="0 0 600 800" width="600" height="800">
    <path class="a" d="m286.8 13.6c-3.2 0.8-7.7 2.4-10.1 3.6-2.3 1.2-6.4 4.2-9.1 6.7-2.6 2.5-6 6.8-7.5 9.6l-2.6 5-0.5 356.5c-4.4 3.3-7 4.1-9.3 4-2.8 0-4.5-0.8-6.7-3l-3-3v-314.5c-3.9-8.1-6.8-12.3-9-14.5-2.2-2.2-7.5-5.7-11.8-7.7-6.9-3.3-8.7-3.8-17.2-4.1-5.4-0.3-11.9 0.1-15 0.8-3 0.7-8.2 2.6-11.4 4.4-3.2 1.7-8 5.3-10.5 8.1-2.7 2.9-5.4 7.1-6.4 10-1.6 4.7-1.7 15.4-1.7 161.3 0 85.9-0.3 156.9-0.8 157.8-0.4 0.9-1.9 2.3-3.5 3-1.5 0.8-4.6 1.4-7 1.4-2.7 0.1-5.2-0.6-7-2l-2.7-2-0.5-241.5c-4.1-7.8-7.2-11.8-9.6-13.9-2.4-2.2-6.9-5.1-9.9-6.5-5-2.4-6.7-2.6-18-2.6-11.8 0-12.8 0.2-19 3-3.6 1.7-8.7 5.1-11.3 7.5-2.7 2.5-5.9 6.7-7.3 9.5-1.3 2.7-4.6 14-7.3 25-2.7 11-6.1 25.4-7.5 32-1.4 6.6-3.9 19.2-5.5 28-1.6 8.8-4.1 24.1-5.5 34-1.4 9.9-3.2 23.9-4.1 31-0.8 7.1-2.1 21.1-3 31-0.8 9.9-2 32.6-2.7 50.5-0.9 25.5-0.9 39.9 0 66.5 0.7 18.7 2.1 43.9 3.2 56 1 12.1 2.8 29.4 3.9 38.5 1.1 9.1 3 22.8 4.1 30.5 1.1 7.7 3.4 21.6 5.1 31 1.6 9.4 4.1 21.3 5.5 26.5 1.4 5.2 4.4 14 6.5 19.5 2.2 5.5 6.1 13.8 8.6 18.5 2.5 4.7 7.6 13 11.4 18.5 3.7 5.5 10.9 14.7 16.1 20.4 5.1 5.8 14 14.5 19.8 19.3 5.8 4.9 14.8 11.7 20 15.2 5.2 3.5 13.6 8.6 18.5 11.3 4.9 2.8 13.1 6.8 18 9 4.9 2.2 13.5 5.7 19 7.8 5.5 2 16.7 5.4 25 7.5 8.2 2.1 21.3 4.8 29 5.9 7.7 1.1 21.2 2.5 30 3.1 8.8 0.5 21.9 1 29 1 7.1 0 20.2-0.5 29-1 8.8-0.6 22.1-2 29.5-3 7.4-1.1 19.8-3.5 27.5-5.4 7.7-1.9 19.2-5.2 25.5-7.4 6.3-2.1 15.1-5.4 19.5-7.2 4.4-1.9 12.5-5.7 18-8.5 5.5-2.9 14.1-7.7 19-10.7 4.9-3.1 12.2-8 16.2-11 3.9-2.9 11.1-8.7 15.9-12.8 4.8-4.1 12.8-12 17.7-17.5 4.9-5.5 12.3-15.2 16.6-21.5 4.2-6.3 9.8-15.8 12.3-21 2.6-5.2 6-13.1 7.6-17.5 1.6-4.4 3.9-11.8 5.1-16.5 1.1-4.7 3.6-18 5.5-29.5 1.9-11.5 4.6-29.3 6-39.5 1.4-10.2 3.2-24.6 4-32 0.9-7.4 2.2-21.6 3.1-31.5 0.8-9.9 1.9-26.3 2.5-36.5 0.6-10.2 1.1-34.9 1.1-55 0-20.1-0.5-44.4-1.1-54-0.6-9.6-1.7-24.9-2.6-34-0.8-9.1-2.4-23-3.5-31-1.1-8-3.3-22.1-4.9-31.5-1.6-9.4-4.5-24.2-6.5-33-2-8.8-5.2-21.9-7.1-29-2-7.2-5.4-18.6-7.5-25.5-2.2-6.9-5-14.3-6.3-16.5-1.3-2.2-4.4-5.9-7-8.3-2.5-2.3-6.3-5.1-8.4-6.1-2-1-5.7-2.4-8.2-3.1-2.5-0.6-8.1-1.2-12.5-1.1-5.3 0-10 0.7-14 2.1-3.3 1.1-8.2 3.7-10.9 5.8-2.9 2.1-6.2 6-8 9.2l-3.1 5.5-0.5 242.5c-5.7 3.6-7.8 4-11.6 3.8q-5.2-0.3-7.3-2.3l-2.1-2-0.5-313c-4.3-8.1-7.4-12.3-9.8-14.6-2.3-2.2-6.9-5.3-10.2-6.9-3.3-1.6-9.1-3.5-13-4.1-5.2-1-9-1-14.5-0.3-4.3 0.6-10.3 2.3-14 4-3.6 1.7-8.7 5-11.3 7.4-2.7 2.5-6.1 7-7.5 10l-2.7 5.5c-0.9 294.2-1.2 313.6-2.5 315-0.8 0.9-3.5 1.9-6 2.2-3.8 0.5-4.9 0.2-7.5-2l-3-2.5-1-357.7c-4.6-8.4-7.8-12.3-10-14.2-2.2-1.9-6.1-4.6-8.8-5.9-2.6-1.3-7.3-3.1-10.5-3.9-3.1-0.8-8.6-1.5-12.2-1.4-3.6 0-9.1 0.7-12.3 1.5z"/>
</svg>